<?xml version="1.0" encoding="iso-8859-1"?>
<!-- Generator: Adobe Illustrator 19.0.0, SVG Export Plug-In . SVG Version: 6.00 Build 0)  -->
<svg version="1.1" id="Capa_1" xmlns="http://www.w3.org/2000/svg" xmlns:xlink="http://www.w3.org/1999/xlink" x="0px" y="0px"
	 viewBox="0 0 512 512" style="enable-background:new 0 0 512 512;" xml:space="preserve">
<path style="fill:#87F8F4;" d="M364.162,432.552H24.209c-8.534,0-15.453-6.919-15.453-15.453V164.705h370.858V417.1
	C379.615,425.634,372.696,432.552,364.162,432.552z"/>
<path style="fill:#00D3D8;" d="M348.708,401.647H24.209v30.905h339.953c8.534,0,15.453-6.919,15.453-15.453V164.705h-30.905v236.942
	H348.708z"/>
<path style="fill:#FF7C8B;" d="M264.322,71.495l-70.137,40.494l-70.137-40.494c-13.735-7.93-30.905,1.983-30.905,17.843
	c0,23.979,0,58.887,0,83.093h202.084c0-23.972,0-58.884,0-83.093C295.227,73.478,278.058,63.564,264.322,71.495z"/>
<g>
	<path style="fill:#FF5368;" d="M271.013,102.661c-2.134-3.696-6.859-4.961-10.554-2.828l-66.274,38.264l-66.274-38.264
		c-3.695-2.135-8.421-0.868-10.554,2.828c-2.134,3.695-0.867,8.421,2.828,10.554l70.137,40.494c0.006,0.004,0.013,0.006,0.021,0.01
		c0.218,0.125,0.445,0.229,0.674,0.331c0.084,0.038,0.167,0.088,0.252,0.122c0.107,0.044,0.22,0.072,0.33,0.111
		c0.844,0.301,1.714,0.462,2.581,0.462c0.002,0,0.005,0,0.007,0s0.005,0,0.007,0c0.865,0,1.737-0.161,2.581-0.462
		c0.109-0.039,0.221-0.067,0.33-0.111c0.086-0.034,0.168-0.083,0.252-0.122c0.228-0.103,0.455-0.206,0.674-0.331
		c0.006-0.004,0.013-0.006,0.021-0.01l70.137-40.494C271.881,111.081,273.147,106.356,271.013,102.661z"/>
	<circle style="fill:#FF5368;" cx="194.189" cy="130.534" r="30.905"/>
</g>
<path style="fill:#87F8F4;" d="M380.644,138.951H7.726c-4.267,0-7.726,3.459-7.726,7.726v61.811c0,4.267,3.459,7.726,7.726,7.726
	h372.917c4.267,0,7.726-3.459,7.726-7.726v-61.811C388.37,142.41,384.912,138.951,380.644,138.951z"/>
<path style="fill:#00D3D8;" d="M380.644,138.951h-23.179v46.358H0v23.179c0,4.267,3.459,7.726,7.726,7.726h372.917
	c4.267,0,7.726-3.459,7.726-7.726v-61.811C388.37,142.41,384.912,138.951,380.644,138.951z"/>
<path style="fill:#FF7C8B;" d="M225.09,131.224H163.28c-4.267,0-7.726,3.458-7.726,7.726v293.602c0,4.268,3.459,7.726,7.726,7.726
	h61.811c4.267,0,7.726-3.458,7.726-7.726V138.951C232.817,134.683,229.357,131.224,225.09,131.224z"/>
<path style="fill:#FF5368;" d="M225.09,131.224h-23.179v278.149h-46.358v23.179c0,4.268,3.459,7.726,7.726,7.726h61.811
	c4.267,0,7.726-3.458,7.726-7.726V138.951C232.817,134.683,229.357,131.224,225.09,131.224z"/>
<path style="fill:#F7A16E;" d="M501.949,351.92l-90.695-90.695c-5.985-5.985-14.1-9.35-22.564-9.357h-39.105
	c-7.924,0.019-15.11,3.498-20.316,8.696c-5.198,5.207-8.678,12.392-8.697,20.317v39.105c0.007,8.464,3.372,16.579,9.357,22.564
	l90.695,90.695c13.402,13.403,35.13,13.403,48.533,0l32.792-32.792C515.35,387.051,515.35,365.323,501.949,351.92z"/>
<path style="fill:#CE795F;" d="M501.949,351.92l-90.695-90.695c-5.985-5.985-14.101-9.351-22.565-9.357l-30.537-0.037
	l117.325,117.324c1.865,1.865,2.912,4.395,2.912,7.032l0,0c0,2.637-1.048,5.167-2.912,7.032l-52.32,52.319
	c13.48,11.058,33.412,10.295,46-2.293l32.792-32.792C515.35,387.051,515.351,365.323,501.949,351.92z"/>
<path style="fill:#596775;" d="M351.555,271.923l-10.025-10.025c-12.204-12.202-18.923-28.427-18.923-45.684h-15.453
	c0,21.386,8.328,41.49,23.449,56.612l10.025,10.025c1.509,1.508,3.487,2.262,5.464,2.262c1.977,0,3.955-0.754,5.464-2.262
	C354.573,279.833,354.573,274.942,351.555,271.923z"/>
<g>
</g>
<g>
</g>
<g>
</g>
<g>
</g>
<g>
</g>
<g>
</g>
<g>
</g>
<g>
</g>
<g>
</g>
<g>
</g>
<g>
</g>
<g>
</g>
<g>
</g>
<g>
</g>
<g>
</g>
</svg>
