<svg height="512" viewBox="0 0 64 64" width="512" xmlns="http://www.w3.org/2000/svg"><path d="m53 15.849v-7.849h-6.015v4.412z"/><path d="m31.5 6.436-25.361 14.494a1 1 0 0 0 -.4 1.315l.208.417a.994.994 0 0 0 .6.51.979.979 0 0 0 .786-.089l23.179-13.241a3.009 3.009 0 0 1 2.977 0l23.172 13.241a.983.983 0 0 0 .786.089.994.994 0 0 0 .6-.51l.208-.417a1 1 0 0 0 -.4-1.315l-25.355-14.494a1 1 0 0 0 -1 0z"/><path d="m17 35a15 15 0 1 0 15-15 15.017 15.017 0 0 0 -15 15zm7-4h-2a4 4 0 0 1 8 0h-2a2 2 0 0 0 -4 0zm8 15a7.008 7.008 0 0 1 -7-7h2a5 5 0 0 0 10 0h2a7.008 7.008 0 0 1 -7 7zm6-19a4 4 0 0 1 4 4h-2a2 2 0 0 0 -4 0h-2a4 4 0 0 1 4-4z"/><path d="m5 60h54a1 1 0 0 0 0-2h-54a1 1 0 0 0 0 2z"/><path d="m31.5 11.578-20.5 11.722v32.7h42v-32.706l-20.5-11.716a1 1 0 0 0 -1 0zm-14.5 42.422h-4v-2h4zm4 0h-2v-2h2zm24 0h-2v-2h2zm6 0h-4v-2h4zm-2-19a17 17 0 1 1 -17-17 17.019 17.019 0 0 1 17 17z"/><path d="m54 4h-8a1 1 0 0 0 0 2h8a1 1 0 0 0 0-2z"/></svg>